<svg xmlns="http://www.w3.org/2000/svg" viewBox="0 0 40 40" width="40" height="40"><rect width="40" height="40" rx="11" fill="#161222"></rect><g transform="translate(20 20) scale(0.36) translate(-60 -60)"><g stroke="#453a63" stroke-width="2" stroke-linecap="butt"><line x1="60.00" y1="22.00" x2="60.00" y2="19.50"></line><line x1="67.41" y1="22.73" x2="67.90" y2="20.28"></line><line x1="74.54" y1="24.89" x2="78.56" y2="15.19"></line><line x1="81.11" y1="28.40" x2="86.95" y2="19.67"></line><line x1="86.87" y1="33.13" x2="91.47" y2="28.53"></line><line x1="91.60" y1="38.89" x2="93.67" y2="37.50"></line><line x1="95.11" y1="45.46" x2="97.42" y2="44.50"></line><line x1="97.27" y1="52.59" x2="103.64" y2="51.32"></line><line x1="98.00" y1="60.00" x2="108.50" y2="60.00"></line><line x1="97.27" y1="67.41" x2="107.57" y2="69.46"></line><line x1="95.11" y1="74.54" x2="97.42" y2="75.50"></line><line x1="91.60" y1="81.11" x2="93.67" y2="82.50"></line><line x1="86.87" y1="86.87" x2="88.64" y2="88.64"></line><line x1="81.11" y1="91.60" x2="86.95" y2="100.33"></line><line x1="74.54" y1="95.11" x2="78.56" y2="104.81"></line><line x1="67.41" y1="97.27" x2="68.68" y2="103.64"></line><line x1="60.00" y1="98.00" x2="60.00" y2="100.50"></line><line x1="52.59" y1="97.27" x2="52.10" y2="99.72"></line><line x1="45.46" y1="95.11" x2="42.97" y2="101.11"></line><line x1="38.89" y1="91.60" x2="33.05" y2="100.33"></line><line x1="33.13" y1="86.87" x2="25.71" y2="94.29"></line><line x1="28.40" y1="81.11" x2="23.00" y2="84.72"></line><line x1="24.89" y1="74.54" x2="22.58" y2="75.50"></line><line x1="22.73" y1="67.41" x2="20.28" y2="67.90"></line><line x1="22.00" y1="60.00" x2="11.50" y2="60.00"></line><line x1="22.73" y1="52.59" x2="12.43" y2="50.54"></line><line x1="24.89" y1="45.46" x2="15.19" y2="41.44"></line><line x1="28.40" y1="38.89" x2="26.33" y2="37.50"></line><line x1="33.13" y1="33.13" x2="31.36" y2="31.36"></line><line x1="38.89" y1="28.40" x2="35.28" y2="23.00"></line><line x1="45.46" y1="24.89" x2="41.44" y2="15.19"></line><line x1="52.59" y1="22.73" x2="50.54" y2="12.43"></line></g><circle cx="60" cy="60" r="32" fill="none" stroke="#453a63" stroke-width="1.2"></circle><path d="M46 62 L60 46 L74 62" fill="none" stroke="#b48ce8" stroke-width="5" stroke-linecap="round" stroke-linejoin="round"></path><rect x="53" y="70" width="14" height="5" rx="2.5" fill="#e0a740"></rect></g></svg>